<?xml version="1.0" encoding="UTF-8"?><svg id="a" xmlns="http://www.w3.org/2000/svg" xmlns:xlink="http://www.w3.org/1999/xlink" viewBox="0 0 1017.73 775.63"><defs><clipPath id="b"><path d="M317.43,456.7l96.22-96.22,318.93,96.22-91.12,91.12-51.89-19.15-103.94,103.94,19.15,51.89-91.12,91.12-96.22-318.93ZM458.44,558.48l56.99-56.99-89.73-32.9,32.74,89.89ZM531.18,242.94L774.12,0l53.13,53.13-162.01,162.01,26.56,26.56,162.01-162.01,48.03,48.03-162.01,162.01,26.56,26.56,162.01-162.01,53.28,53.28-242.94,242.94-207.57-207.57Z" style="fill:none; stroke-width:0px;"/></clipPath><clipPath id="c"><path d="M215.94,456.7l96.22-96.22,318.93,96.22-91.12,91.12-51.89-19.15-103.94,103.94,19.15,51.89-91.12,91.12-96.22-318.93ZM356.95,558.48l56.99-56.99-89.73-32.9,32.74,89.89ZM429.7,242.94L672.64,0l53.13,53.13-162.01,162.01,26.56,26.56,162.01-162.01,48.03,48.03-162.01,162.01,26.56,26.56,162.01-162.01,53.28,53.28-242.94,242.94-207.57-207.57Z" style="fill:none; stroke-width:0px;"/></clipPath><clipPath id="d"><path d="M119.43,456.7l96.22-96.22,318.93,96.22-91.12,91.12-51.89-19.15-103.94,103.94,19.15,51.89-91.12,91.12-96.22-318.93ZM260.44,558.48l56.99-56.99-89.73-32.9,32.74,89.89ZM333.18,242.94L576.13,0l53.13,53.13-162.01,162.01,26.56,26.56,162.01-162.01,48.03,48.03-162.01,162.01,26.56,26.56,162.01-162.01,53.28,53.28-242.94,242.94-207.57-207.57Z" style="fill:none; stroke-width:0px;"/></clipPath></defs><g style="clip-path:url(#b);"><rect x="183.72" y="0" width="834.01" height="41.7" style="stroke-width:0px;"/><rect x="183.72" y="66.72" width="834.01" height="41.7" style="stroke-width:0px;"/><rect x="183.72" y="133.44" width="834.01" height="41.7" style="stroke-width:0px;"/><rect x="183.72" y="200.16" width="834.01" height="41.7" style="stroke-width:0px;"/><rect x="183.72" y="266.88" width="834.01" height="41.7" style="stroke-width:0px;"/><rect x="183.72" y="333.6" width="834.01" height="41.7" style="stroke-width:0px;"/><rect x="183.72" y="400.32" width="834.01" height="41.7" style="stroke-width:0px;"/><rect x="183.72" y="467.04" width="834.01" height="41.7" style="stroke-width:0px;"/><rect x="183.72" y="533.76" width="834.01" height="41.7" style="stroke-width:0px;"/><rect x="183.72" y="600.48" width="834.01" height="41.7" style="stroke-width:0px;"/><rect x="183.72" y="667.21" width="834.01" height="41.7" style="stroke-width:0px;"/><rect x="183.72" y="733.93" width="834.01" height="41.7" style="stroke-width:0px;"/></g><g style="clip-path:url(#c);"><rect x="89.37" y="0" width="834.01" height="20.85" style="stroke-width:0px;"/><rect x="89.37" y="66.72" width="834.01" height="20.85" style="stroke-width:0px;"/><rect x="89.37" y="133.44" width="834.01" height="20.85" style="stroke-width:0px;"/><rect x="89.37" y="200.16" width="834.01" height="20.85" style="stroke-width:0px;"/><rect x="89.37" y="266.88" width="834.01" height="20.85" style="stroke-width:0px;"/><rect x="89.37" y="333.6" width="834.01" height="20.85" style="stroke-width:0px;"/><rect x="89.37" y="400.32" width="834.01" height="20.85" style="stroke-width:0px;"/><rect x="89.37" y="467.04" width="834.01" height="20.85" style="stroke-width:0px;"/><rect x="89.37" y="533.76" width="834.01" height="20.85" style="stroke-width:0px;"/><rect x="89.37" y="600.48" width="834.01" height="20.85" style="stroke-width:0px;"/><rect x="89.37" y="667.21" width="834.01" height="20.85" style="stroke-width:0px;"/><rect x="89.37" y="733.93" width="834.01" height="20.85" style="stroke-width:0px;"/></g><g style="clip-path:url(#d);"><rect y="0" width="834.01" height="10.43" style="stroke-width:0px;"/><rect y="66.72" width="834.01" height="10.43" style="stroke-width:0px;"/><rect y="133.44" width="834.01" height="10.43" style="stroke-width:0px;"/><rect y="200.16" width="834.01" height="10.43" style="stroke-width:0px;"/><rect y="266.88" width="834.01" height="10.43" style="stroke-width:0px;"/><rect y="333.6" width="834.01" height="10.43" style="stroke-width:0px;"/><rect y="400.32" width="834.01" height="10.43" style="stroke-width:0px;"/><rect y="467.04" width="834.01" height="10.43" style="stroke-width:0px;"/><rect y="533.76" width="834.01" height="10.43" style="stroke-width:0px;"/><rect y="600.48" width="834.01" height="10.43" style="stroke-width:0px;"/><rect y="667.21" width="834.01" height="10.43" style="stroke-width:0px;"/><rect y="733.93" width="834.01" height="10.43" style="stroke-width:0px;"/></g></svg>