<?xml version="1.0" encoding="UTF-8"?>
<svg id="katman_2" data-name="katman 2" xmlns="http://www.w3.org/2000/svg" viewBox="0 0 217.7 220">
  <defs>
    <style>
      .cls-1 {
        fill: #e9e9e9;
      }
    </style>
  </defs>
  <g id="Layer_1" data-name="Layer 1">
    <path class="cls-1" d="M116.99,187.67c5.66-15.73,14.79-30.53,27.38-43.19l.23-.23c12.61-12.61,27.34-21.76,43.01-27.47,9.76-3.55,19.88-5.77,30.07-6.64-10.16-.56-20.25-2.47-29.98-5.71-16.33-5.42-31.63-14.61-44.59-27.57-12.95-12.95-22.15-28.27-27.57-44.59-3.48-10.46-5.41-21.34-5.8-32.28l-.42,.42c-.75,10.86-3.02,21.64-6.8,32.01-5.69,15.6-14.82,30.28-27.36,42.86l-.09,.09c-12.53,12.53-27.17,21.66-42.74,27.37-10.44,3.83-21.29,6.12-32.22,6.88l-.13,.13c10.92,.39,21.77,2.32,32.21,5.78,16.34,5.43,31.68,14.62,44.65,27.6,12.98,12.98,22.16,28.3,27.59,44.65,3.47,10.44,5.4,21.29,5.79,32.21l.07-.07c.69-10.93,2.92-21.8,6.68-32.26Z"/>
  </g>
</svg>